<mxfile host="app.diagrams.net" modified="2024-06-27T13:22:38.290Z" agent="Mozilla/5.0 (Macintosh; Intel Mac OS X 10_15_7) AppleWebKit/537.36 (KHTML, like Gecko) Chrome/109.0.0.0 Safari/537.36" version="24.5.3" etag="gGfHt21k6hHmwAXKYVfn" type="github">
  <diagram name="第 1 页" id="Hij8ISrS3Rm2xz7GxP1R">
    <mxGraphModel>
      <root>
        <mxCell id="0" />
        <mxCell id="1" parent="0" />
      </root>
    </mxGraphModel>
  </diagram>
</mxfile>
